<svg xmlns="http://www.w3.org/2000/svg" xmlns:xlink="http://www.w3.org/1999/xlink" width="500" zoomAndPan="magnify" viewBox="0 0 375 374.999991" height="500" preserveAspectRatio="xMidYMid meet" version="1.0"><defs><clipPath id="id1"><path d="M 78 74 L 298 74 L 298 307.6875 L 78 307.6875 Z M 78 74 " clip-rule="nonzero"/></clipPath></defs><rect x="-37.5" width="450" fill="#ffffff" y="-37.499999" height="449.999989" fill-opacity="1"/><rect x="-37.5" width="450" fill="#ffffff" y="-37.499999" height="449.999989" fill-opacity="1"/><rect x="-37.5" width="450" fill="#ffffff" y="-37.499999" height="449.999989" fill-opacity="1"/><rect x="-37.5" width="450" fill="#ffffff" y="-37.499999" height="449.999989" fill-opacity="1"/><path fill="#393536" d="M 187.578125 260.707031 C 187.582031 260.640625 187.585938 260.578125 187.585938 260.511719 C 187.585938 260.511719 187.582031 260.578125 187.578125 260.707031 " fill-opacity="1" fill-rule="nonzero"/><path fill="#393536" d="M 223.007812 164.199219 C 219.035156 160.714844 213.5625 160.03125 209.015625 162 C 211.25 161.765625 213.566406 162.429688 215.382812 164.023438 C 218.84375 167.0625 219.183594 172.324219 216.144531 175.785156 C 213.109375 179.242188 207.84375 179.582031 204.386719 176.546875 C 202.566406 174.949219 201.613281 172.734375 201.558594 170.492188 C 200.195312 175.257812 201.574219 180.59375 205.546875 184.082031 C 211.035156 188.902344 219.394531 188.359375 224.214844 182.871094 C 229.039062 177.382812 228.496094 169.023438 223.007812 164.199219 " fill-opacity="1" fill-rule="nonzero"/><path fill="#393536" d="M 174.429688 182.871094 C 179.25 177.382812 178.707031 169.023438 173.21875 164.199219 C 169.246094 160.714844 163.777344 160.03125 159.230469 162 C 161.460938 161.765625 163.777344 162.429688 165.597656 164.023438 C 169.054688 167.0625 169.394531 172.324219 166.359375 175.785156 C 163.320312 179.242188 158.054688 179.582031 154.597656 176.546875 C 152.78125 174.949219 151.824219 172.734375 151.769531 170.492188 C 150.40625 175.257812 151.789062 180.59375 155.757812 184.082031 C 161.246094 188.902344 169.605469 188.359375 174.429688 182.871094 " fill-opacity="1" fill-rule="nonzero"/><path fill="#f5bb96" d="M 203.800781 249 C 199.707031 248.371094 195.679688 247.417969 191.785156 246.492188 C 187.292969 245.425781 183.050781 244.421875 178.699219 243.867188 C 169.167969 242.648438 159.242188 245.199219 148.609375 251.628906 C 150.300781 253.433594 152.871094 255.957031 156.207031 258.570312 L 156.210938 258.570312 C 156.210938 258.570312 167.976562 268.070312 177.949219 260.984375 C 177.949219 260.984375 177.023438 264.796875 170.566406 267.003906 C 170.613281 267.023438 170.664062 267.042969 170.710938 267.0625 C 173.253906 268.082031 176.074219 268.277344 178.714844 267.550781 C 179.96875 267.207031 180.898438 266.757812 181.308594 266.179688 C 181.308594 266.179688 181.300781 267.796875 180.617188 269.882812 L 180.632812 269.886719 C 181.734375 270.074219 182.871094 269.84375 183.800781 269.226562 C 185.6875 267.972656 187.683594 265.515625 187.8125 260.707031 C 187.8125 260.578125 187.820312 260.511719 187.820312 260.511719 C 187.816406 260.578125 187.8125 260.640625 187.8125 260.707031 C 187.796875 261.410156 187.863281 263.9375 189.367188 266.679688 C 190.644531 269.011719 193.292969 270.269531 195.910156 269.796875 L 195.945312 269.792969 C 195.296875 267.75 195.285156 266.179688 195.285156 266.179688 C 195.640625 266.679688 196.386719 267.082031 197.390625 267.40625 C 199.984375 268.238281 202.796875 268.089844 205.332031 267.082031 C 205.472656 267.023438 205.613281 266.964844 205.753906 266.910156 C 199.546875 264.6875 198.644531 260.984375 198.644531 260.984375 C 205.640625 265.953125 213.519531 262.765625 217.601562 260.414062 C 221.320312 257.84375 225.128906 254.714844 229 250.933594 C 230.953125 248.808594 232.863281 246.347656 234.414062 243.597656 C 225.757812 248.734375 215.015625 250.722656 203.800781 249 " fill-opacity="1" fill-rule="nonzero"/><path fill="#f5bb96" d="M 232.515625 146.175781 C 232.300781 146.175781 232.082031 146.179688 231.859375 146.1875 C 231.859375 146.1875 237.105469 144.625 242.332031 143.917969 L 242.257812 143.847656 C 237.851562 139.515625 231.917969 137.074219 225.738281 136.910156 C 220.355469 136.769531 214.695312 137.683594 209.390625 140.519531 C 209.390625 140.519531 211.96875 137.578125 216.203125 134.550781 C 203.019531 135.761719 192.023438 144.738281 187.621094 156.984375 C 183.078125 144.351562 171.519531 135.199219 157.777344 134.460938 C 162.089844 137.519531 164.722656 140.519531 164.722656 140.519531 C 160.425781 138.222656 155.902344 137.1875 151.476562 136.953125 C 144.710938 136.589844 138.078125 139.15625 133.414062 144.070312 L 133.335938 144.152344 C 137.996094 144.921875 142.25 146.1875 142.25 146.1875 C 142.1875 146.1875 142.125 146.183594 142.0625 146.183594 C 134.15625 145.972656 127.136719 151.375 125.386719 159.089844 C 124.175781 164.433594 124.3125 170.203125 126.121094 175.902344 C 132 194.46875 147.285156 211.027344 147.285156 211.027344 C 147.285156 211.027344 142.820312 222.714844 147.285156 229.644531 C 147.285156 229.644531 143.226562 226.207031 140.65625 220.148438 C 140.527344 220.378906 140.339844 220.738281 140.109375 221.226562 L 140.085938 221.277344 C 138.40625 224.714844 138.238281 228.722656 139.734375 232.238281 C 140.492188 234.019531 141.53125 235.535156 142.945312 236.574219 L 136.957031 232.898438 C 136.953125 232.972656 136.949219 233.042969 136.945312 233.113281 C 136.644531 237.742188 137.441406 243.023438 140.816406 248.027344 L 140.820312 248.027344 C 154.394531 238.808594 167.15625 235.085938 179.617188 236.679688 C 184.351562 237.285156 188.980469 238.382812 193.457031 239.445312 C 197.210938 240.335938 201.09375 241.253906 204.898438 241.839844 C 215.261719 243.433594 225.085938 241.332031 232.59375 236.152344 C 233.539062 235.324219 234.300781 234.269531 234.90625 233.054688 C 236.785156 229.3125 236.710938 224.882812 234.863281 221.128906 C 234.703125 220.804688 234.535156 220.480469 234.363281 220.152344 C 231.792969 226.210938 227.738281 229.644531 227.738281 229.644531 C 232.199219 222.714844 227.738281 211.027344 227.738281 211.027344 C 227.953125 210.789062 228.167969 210.546875 228.382812 210.304688 C 238.679688 198.625 248.378906 183.8125 250.730469 168.171875 C 250.832031 167.492188 250.90625 166.820312 250.960938 166.148438 C 251.78125 155.390625 243.308594 146.066406 232.515625 146.175781 " fill-opacity="1" fill-rule="nonzero"/><path fill="#f5bb96" d="M 155.992188 184.082031 C 152.019531 180.59375 150.640625 175.257812 152.003906 170.492188 C 152.058594 172.734375 153.011719 174.949219 154.832031 176.546875 C 158.289062 179.582031 163.554688 179.242188 166.589844 175.785156 C 169.628906 172.324219 169.285156 167.0625 165.828125 164.023438 C 164.011719 162.429688 161.691406 161.765625 159.460938 162 C 164.007812 160.03125 169.480469 160.714844 173.449219 164.199219 C 178.941406 169.023438 179.480469 177.382812 174.660156 182.871094 C 169.839844 188.359375 161.480469 188.902344 155.992188 184.082031 " fill-opacity="1" fill-rule="nonzero"/><path fill="#f5bb96" d="M 171.664062 210.886719 C 169.308594 210.886719 168.0625 208.085938 169.652344 206.34375 C 170.335938 205.59375 171.300781 204.875 172.667969 204.300781 C 177.949219 202.082031 185.070312 210.886719 185.070312 210.886719 L 171.664062 210.886719 " fill-opacity="1" fill-rule="nonzero"/><path fill="#f5bb96" d="M 203.972656 210.886719 L 190.566406 210.886719 C 190.566406 210.886719 197.6875 202.082031 202.96875 204.300781 C 204.335938 204.875 205.304688 205.59375 205.988281 206.34375 C 207.574219 208.085938 206.328125 210.886719 203.972656 210.886719 " fill-opacity="1" fill-rule="nonzero"/><path fill="#f5bb96" d="M 224.445312 182.871094 C 219.625 188.359375 211.265625 188.902344 205.777344 184.082031 C 201.804688 180.59375 200.425781 175.257812 201.789062 170.492188 C 201.84375 172.734375 202.800781 174.949219 204.621094 176.546875 C 208.078125 179.582031 213.34375 179.242188 216.378906 175.785156 C 219.414062 172.324219 219.074219 167.0625 215.617188 164.023438 C 213.796875 162.429688 211.480469 161.765625 209.25 162 C 213.796875 160.03125 219.265625 160.714844 223.238281 164.199219 C 228.726562 169.023438 229.269531 177.382812 224.445312 182.871094 " fill-opacity="1" fill-rule="nonzero"/><path fill="#393536" d="M 174.429688 182.871094 C 179.25 177.382812 178.707031 169.023438 173.21875 164.199219 C 169.246094 160.714844 163.777344 160.03125 159.230469 162 C 161.460938 161.765625 163.777344 162.429688 165.597656 164.023438 C 169.054688 167.0625 169.394531 172.324219 166.359375 175.785156 C 163.320312 179.242188 158.054688 179.582031 154.597656 176.546875 C 152.78125 174.949219 151.824219 172.734375 151.769531 170.492188 C 150.40625 175.257812 151.789062 180.59375 155.757812 184.082031 C 161.246094 188.902344 169.605469 188.359375 174.429688 182.871094 " fill-opacity="1" fill-rule="nonzero"/><path fill="#393536" d="M 172.4375 204.300781 C 171.070312 204.875 170.101562 205.59375 169.421875 206.34375 C 167.832031 208.085938 169.078125 210.886719 171.433594 210.886719 L 184.835938 210.886719 C 184.835938 210.886719 177.71875 202.082031 172.4375 204.300781 " fill-opacity="1" fill-rule="nonzero"/><path fill="#393536" d="M 223.007812 164.199219 C 219.035156 160.714844 213.5625 160.03125 209.015625 162 C 211.25 161.765625 213.566406 162.429688 215.382812 164.023438 C 218.84375 167.0625 219.183594 172.324219 216.144531 175.785156 C 213.109375 179.242188 207.84375 179.582031 204.386719 176.546875 C 202.566406 174.949219 201.613281 172.734375 201.558594 170.492188 C 200.195312 175.257812 201.574219 180.59375 205.546875 184.082031 C 211.035156 188.902344 219.394531 188.359375 224.214844 182.871094 C 229.039062 177.382812 228.496094 169.023438 223.007812 164.199219 " fill-opacity="1" fill-rule="nonzero"/><path fill="#393536" d="M 202.738281 204.300781 C 197.453125 202.082031 190.335938 210.886719 190.335938 210.886719 L 203.738281 210.886719 C 206.097656 210.886719 207.339844 208.085938 205.753906 206.34375 C 205.074219 205.59375 204.105469 204.875 202.738281 204.300781 " fill-opacity="1" fill-rule="nonzero"/><path fill="#393536" d="M 187.578125 260.707031 C 187.582031 260.640625 187.585938 260.578125 187.585938 260.511719 C 187.585938 260.511719 187.582031 260.578125 187.578125 260.707031 " fill-opacity="1" fill-rule="nonzero"/><path fill="#957768" d="M 228.464844 210.304688 C 238.765625 198.625 248.460938 183.8125 250.8125 168.171875 C 250.914062 167.492188 250.988281 166.820312 251.039062 166.148438 C 251.84375 155.660156 243.804688 146.535156 233.398438 146.1875 L 232.8125 146.1875 C 241.5 146.496094 241.074219 156.222656 241.074219 156.226562 C 241.199219 158.117188 241.011719 160.394531 240.460938 163.109375 L 240.453125 163.140625 C 240.257812 164.902344 239.800781 166.769531 239.003906 168.722656 C 230.347656 195.785156 205.183594 191.242188 205.179688 191.242188 C 202.691406 190.894531 200.171875 190.132812 197.644531 188.886719 C 195.910156 188.113281 194.953125 187.371094 194.953125 187.371094 L 194.953125 201.007812 C 194.953125 201.007812 203.535156 196.441406 209.949219 200.515625 C 211.730469 201.304688 212.792969 202.503906 213.339844 203.933594 L 213.347656 203.945312 L 213.34375 203.941406 C 215.578125 209.800781 209.15625 219.410156 208.550781 219.609375 C 208.550781 219.609375 216.582031 217.039062 218.261719 209.601562 C 218.261719 209.601562 225.746094 222.164062 205.519531 225.496094 C 202.695312 225.960938 200.089844 227.398438 198.332031 229.65625 C 195.976562 232.679688 195.410156 236.539062 198.109375 240.503906 C 200.398438 241.019531 202.703125 241.492188 204.984375 241.839844 C 215.34375 243.433594 225.167969 241.332031 232.679688 236.152344 C 233.621094 235.324219 234.382812 234.269531 234.988281 233.054688 C 236.867188 229.3125 236.796875 224.882812 234.945312 221.128906 C 234.785156 220.804688 234.621094 220.480469 234.449219 220.152344 C 231.875 226.210938 227.820312 229.644531 227.820312 229.644531 C 232.285156 222.714844 227.820312 211.027344 227.820312 211.027344 C 228.039062 210.789062 228.25 210.546875 228.464844 210.304688 " fill-opacity="1" fill-rule="nonzero"/><path fill="#957768" d="M 235.523438 144.027344 C 235.710938 144.390625 235.886719 144.757812 236.050781 145.121094 C 237.890625 144.691406 240.15625 144.222656 242.414062 143.917969 L 242.339844 143.847656 C 237.933594 139.515625 232 137.074219 225.820312 136.910156 C 223.148438 136.839844 220.40625 137.03125 217.679688 137.585938 C 229.605469 136.011719 234.136719 141.585938 235.523438 144.027344 " fill-opacity="1" fill-rule="nonzero"/><path fill="#957768" d="M 203.882812 249 C 199.789062 248.371094 195.761719 247.417969 191.867188 246.492188 C 191.867188 246.492188 204.796875 250.578125 211.5 259.324219 C 205.996094 254.644531 201.59375 256.761719 201.59375 256.761719 C 206.28125 258.597656 207.847656 261.363281 208.289062 263.554688 C 212.050781 263.25 215.441406 261.707031 217.683594 260.414062 C 221.402344 257.84375 225.210938 254.714844 229.085938 250.933594 C 231.035156 248.808594 232.945312 246.347656 234.5 243.597656 C 225.84375 248.734375 215.097656 250.722656 203.882812 249 " fill-opacity="1" fill-rule="nonzero"/><path fill="#f5bb96" d="M 107.539062 167.0625 C 110.191406 164.03125 104.285156 159.554688 98.148438 162.171875 C 98.148438 162.171875 101.675781 155.863281 110.191406 159.550781 L 101.101562 153.804688 C 101.101562 153.804688 101.816406 150.234375 108.113281 151.417969 C 105.71875 150.625 91.089844 146.355469 90.660156 160.914062 L 88.296875 158.808594 C 88.296875 158.808594 86.53125 165.429688 90.425781 170.976562 C 93.816406 174.632812 99.785156 177.296875 110.191406 176.527344 C 110.191406 176.527344 104.890625 170.089844 107.539062 167.0625 " fill-opacity="1" fill-rule="nonzero"/><path fill="#f5bb96" d="M 285.296875 157.394531 L 282.933594 159.328125 C 282.898438 147.65625 268.640625 150.820312 266.21875 151.441406 C 266.144531 151.5 266.101562 151.535156 266.101562 151.535156 C 272.917969 150.019531 273.675781 153.804688 273.675781 153.804688 L 264.585938 159.550781 C 273.101562 155.863281 276.628906 162.171875 276.628906 162.171875 C 270.492188 159.554688 264.585938 164.03125 267.238281 167.0625 C 269.886719 170.089844 264.585938 176.527344 264.585938 176.527344 C 271.976562 177.074219 277.125 175.886719 280.707031 173.84375 C 287.59375 166.28125 285.296875 157.394531 285.296875 157.394531 " fill-opacity="1" fill-rule="nonzero"/><path fill="#957768" d="M 282.632812 149.441406 C 275.132812 144.832031 267.253906 150.632812 266.21875 151.441406 C 268.640625 150.820312 282.898438 147.65625 282.933594 159.328125 L 285.296875 157.394531 C 285.296875 157.394531 287.59375 166.28125 280.707031 173.84375 C 285.777344 170.953125 287.699219 166.347656 288.359375 162.496094 C 289.234375 157.382812 287.050781 152.160156 282.632812 149.441406 " fill-opacity="1" fill-rule="nonzero"/><g clip-path="url(#id1)"><path fill="#393536" d="M 267.320312 167.0625 C 264.667969 164.03125 270.574219 159.554688 276.710938 162.171875 C 276.710938 162.171875 273.183594 155.863281 264.667969 159.550781 L 273.757812 153.804688 C 273.757812 153.804688 273.003906 150.019531 266.183594 151.535156 C 266.183594 151.535156 274.667969 144.5 282.714844 149.441406 C 287.136719 152.160156 289.320312 157.382812 288.441406 162.496094 C 287.3125 169.066406 282.515625 177.847656 264.667969 176.527344 C 264.667969 176.527344 269.972656 170.089844 267.320312 167.0625 Z M 251.039062 166.148438 C 250.988281 166.820312 250.914062 167.492188 250.8125 168.171875 C 248.460938 183.8125 238.765625 198.625 228.464844 210.304688 C 228.25 210.546875 228.039062 210.789062 227.820312 211.027344 C 227.820312 211.027344 232.285156 222.714844 227.820312 229.644531 C 227.820312 229.644531 231.875 226.210938 234.449219 220.152344 C 234.621094 220.480469 234.785156 220.804688 234.945312 221.128906 C 236.796875 224.882812 236.867188 229.3125 234.988281 233.054688 C 234.382812 234.269531 233.621094 235.324219 232.679688 236.152344 C 225.167969 241.332031 215.34375 243.433594 204.984375 241.839844 C 201.179688 241.253906 197.292969 240.335938 193.539062 239.445312 C 189.0625 238.382812 184.433594 237.285156 179.703125 236.679688 C 167.238281 235.085938 154.476562 238.808594 140.90625 248.027344 L 140.902344 248.027344 C 137.523438 243.023438 136.726562 237.742188 137.027344 233.113281 C 137.03125 233.042969 137.035156 232.972656 137.039062 232.898438 L 143.027344 236.574219 C 141.617188 235.535156 140.574219 234.019531 139.816406 232.238281 C 138.324219 228.722656 138.492188 224.714844 140.167969 221.277344 L 140.191406 221.226562 C 140.421875 220.738281 140.613281 220.378906 140.738281 220.148438 C 143.308594 226.207031 147.367188 229.644531 147.367188 229.644531 C 142.902344 222.714844 147.367188 211.027344 147.367188 211.027344 C 147.367188 211.027344 132.082031 194.46875 126.203125 175.902344 C 124.398438 170.203125 124.261719 164.433594 125.472656 159.089844 C 127.21875 151.375 134.238281 145.972656 142.144531 146.183594 C 142.207031 146.183594 142.273438 146.1875 142.335938 146.1875 C 142.335938 146.1875 138.082031 144.921875 133.417969 144.152344 L 133.496094 144.070312 C 138.160156 139.15625 144.792969 136.589844 151.558594 136.953125 C 155.984375 137.1875 160.511719 138.222656 164.804688 140.519531 C 164.804688 140.519531 162.171875 137.519531 157.863281 134.460938 C 171.601562 135.199219 183.164062 144.351562 187.703125 156.984375 C 192.105469 144.738281 203.101562 135.761719 216.289062 134.550781 C 212.050781 137.578125 209.472656 140.519531 209.472656 140.519531 C 214.777344 137.683594 220.4375 136.769531 225.820312 136.910156 C 232 137.074219 237.933594 139.515625 242.339844 143.847656 L 242.414062 143.917969 C 237.191406 144.625 231.941406 146.1875 231.941406 146.1875 C 232.164062 146.179688 232.382812 146.175781 232.597656 146.175781 C 243.390625 146.066406 251.867188 155.390625 251.039062 166.148438 Z M 229.085938 250.933594 C 225.210938 254.714844 221.402344 257.84375 217.683594 260.414062 C 213.601562 262.765625 205.726562 265.953125 198.726562 260.984375 C 198.726562 260.984375 199.628906 264.6875 205.835938 266.910156 C 205.695312 266.964844 205.554688 267.023438 205.414062 267.082031 C 202.878906 268.089844 200.070312 268.238281 197.472656 267.40625 C 196.46875 267.082031 195.726562 266.679688 195.367188 266.179688 C 195.367188 266.179688 195.378906 267.75 196.03125 269.792969 L 195.992188 269.796875 C 193.378906 270.269531 190.726562 269.011719 189.449219 266.679688 C 187.949219 263.9375 187.878906 261.410156 187.894531 260.707031 C 187.765625 265.515625 185.773438 267.972656 183.882812 269.226562 C 182.953125 269.84375 181.8125 270.074219 180.714844 269.886719 L 180.699219 269.882812 C 181.382812 267.796875 181.390625 266.179688 181.390625 266.179688 C 180.980469 266.757812 180.050781 267.207031 178.796875 267.550781 C 176.15625 268.277344 173.335938 268.082031 170.796875 267.0625 C 170.746094 267.042969 170.699219 267.023438 170.652344 267.003906 C 177.105469 264.796875 178.03125 260.984375 178.03125 260.984375 C 168.058594 268.070312 156.292969 258.570312 156.292969 258.570312 C 152.957031 255.957031 150.382812 253.433594 148.695312 251.628906 C 159.324219 245.199219 169.246094 242.648438 178.785156 243.867188 C 183.136719 244.421875 187.375 245.425781 191.867188 246.492188 C 195.761719 247.417969 199.789062 248.371094 203.882812 249 C 215.097656 250.722656 225.84375 248.734375 234.5 243.597656 C 232.945312 246.347656 231.035156 248.808594 229.085938 250.933594 Z M 145.054688 105.644531 C 145.234375 105.425781 145.492188 105.09375 145.832031 104.683594 C 146.175781 104.273438 146.585938 103.773438 147.074219 103.210938 C 147.574219 102.667969 148.144531 102.050781 148.777344 101.390625 C 149.09375 101.066406 149.417969 100.710938 149.777344 100.375 C 150.132812 100.035156 150.503906 99.683594 150.882812 99.324219 C 151.265625 98.964844 151.660156 98.597656 152.0625 98.222656 C 152.472656 97.855469 152.902344 97.496094 153.335938 97.121094 C 153.769531 96.75 154.210938 96.375 154.660156 95.996094 C 155.117188 95.625 155.585938 95.257812 156.058594 94.890625 C 156.53125 94.519531 157.003906 94.140625 157.492188 93.78125 C 157.984375 93.421875 158.476562 93.066406 158.964844 92.707031 C 159.953125 91.984375 160.964844 91.3125 161.964844 90.648438 C 162.457031 90.308594 162.964844 89.996094 163.460938 89.6875 C 163.960938 89.375 164.449219 89.066406 164.9375 88.769531 C 165.925781 88.195312 166.867188 87.625 167.792969 87.132812 C 168.25 86.882812 168.695312 86.640625 169.132812 86.40625 C 169.570312 86.183594 169.992188 85.964844 170.398438 85.757812 C 171.210938 85.339844 171.972656 84.992188 172.644531 84.679688 C 173.320312 84.367188 173.914062 84.113281 174.40625 83.910156 C 175.386719 83.496094 175.964844 83.296875 175.964844 83.296875 C 175.964844 83.296875 173.957031 84.660156 170.949219 86.699219 C 170.199219 87.207031 169.390625 87.757812 168.53125 88.335938 C 167.675781 88.921875 166.777344 89.539062 165.84375 90.175781 C 164.917969 90.820312 163.960938 91.484375 162.992188 92.160156 C 162.03125 92.855469 161.03125 93.523438 160.066406 94.242188 C 159.578125 94.589844 159.089844 94.941406 158.605469 95.289062 C 158.125 95.644531 157.644531 95.996094 157.167969 96.347656 C 156.691406 96.695312 156.21875 97.042969 155.75 97.386719 C 155.289062 97.738281 154.835938 98.085938 154.386719 98.425781 C 153.933594 98.765625 153.492188 99.097656 153.058594 99.421875 C 152.628906 99.757812 152.214844 100.085938 151.808594 100.40625 C 150.992188 101.039062 150.207031 101.625 149.511719 102.203125 C 148.808594 102.769531 148.152344 103.28125 147.570312 103.734375 C 147.011719 104.210938 146.507812 104.617188 146.097656 104.949219 C 145.691406 105.289062 145.355469 105.542969 145.132812 105.71875 C 144.90625 105.898438 144.785156 105.992188 144.785156 105.992188 C 144.785156 105.992188 144.878906 105.871094 145.054688 105.644531 Z M 179.21875 94.886719 C 179.511719 94.621094 179.9375 94.21875 180.515625 93.753906 C 181.089844 93.289062 181.796875 92.722656 182.648438 92.132812 C 183.066406 91.828125 183.53125 91.527344 184.011719 91.199219 C 184.5 90.886719 185.019531 90.558594 185.570312 90.238281 C 186.660156 89.574219 187.878906 88.910156 189.195312 88.265625 C 190.511719 87.625 191.917969 86.980469 193.414062 86.402344 C 194.90625 85.820312 196.46875 85.277344 198.085938 84.808594 C 198.894531 84.578125 199.710938 84.339844 200.539062 84.148438 C 200.953125 84.050781 201.363281 83.941406 201.785156 83.851562 L 203.035156 83.585938 C 204.714844 83.246094 206.402344 82.988281 208.074219 82.792969 C 208.90625 82.691406 209.742188 82.632812 210.5625 82.5625 C 211.382812 82.5 212.195312 82.472656 212.996094 82.4375 C 214.59375 82.394531 216.140625 82.410156 217.601562 82.488281 C 217.964844 82.503906 218.324219 82.519531 218.679688 82.535156 C 219.035156 82.566406 219.382812 82.585938 219.726562 82.621094 C 220.410156 82.691406 221.074219 82.738281 221.703125 82.820312 C 222.96875 82.984375 224.125 83.125 225.140625 83.332031 C 226.15625 83.519531 227.039062 83.675781 227.761719 83.863281 C 228.480469 84.03125 229.042969 84.183594 229.429688 84.277344 C 229.808594 84.378906 230.015625 84.429688 230.015625 84.429688 C 230.015625 84.429688 229.804688 84.421875 229.40625 84.402344 C 229.011719 84.378906 228.429688 84.355469 227.695312 84.296875 C 226.964844 84.230469 226.066406 84.230469 225.050781 84.171875 C 224.539062 84.144531 223.996094 84.117188 223.425781 84.121094 C 222.851562 84.109375 222.253906 84.09375 221.625 84.082031 C 221 84.066406 220.347656 84.09375 219.671875 84.097656 C 219.335938 84.101562 218.992188 84.097656 218.644531 84.097656 C 218.296875 84.109375 217.945312 84.121094 217.589844 84.136719 C 216.160156 84.167969 214.65625 84.28125 213.105469 84.390625 C 212.328125 84.472656 211.539062 84.523438 210.746094 84.617188 C 210.351562 84.664062 209.949219 84.714844 209.550781 84.761719 C 209.148438 84.8125 208.742188 84.847656 208.339844 84.914062 C 206.726562 85.152344 205.09375 85.40625 203.472656 85.746094 L 202.257812 85.992188 C 201.851562 86.078125 201.453125 86.179688 201.050781 86.273438 C 200.648438 86.371094 200.246094 86.453125 199.851562 86.554688 C 199.453125 86.660156 199.058594 86.761719 198.664062 86.863281 C 198.265625 86.964844 197.878906 87.078125 197.492188 87.191406 C 197.101562 87.300781 196.714844 87.410156 196.332031 87.519531 C 195.570312 87.761719 194.8125 87.988281 194.078125 88.234375 C 193.339844 88.484375 192.617188 88.734375 191.914062 88.988281 C 191.207031 89.234375 190.527344 89.507812 189.859375 89.765625 C 188.539062 90.308594 187.289062 90.824219 186.15625 91.351562 C 185.023438 91.878906 183.988281 92.378906 183.085938 92.847656 C 182.183594 93.320312 181.402344 93.75 180.765625 94.113281 C 179.488281 94.84375 178.785156 95.3125 178.785156 95.3125 C 178.785156 95.3125 178.925781 95.160156 179.21875 94.886719 Z M 107.625 167.0625 C 104.972656 170.089844 110.273438 176.527344 110.273438 176.527344 C 92.425781 177.847656 87.628906 169.066406 86.503906 162.496094 C 85.625 157.382812 87.804688 152.160156 92.230469 149.441406 C 100.277344 144.5 108.757812 151.535156 108.757812 151.535156 C 101.941406 150.019531 101.183594 153.804688 101.183594 153.804688 L 110.273438 159.550781 C 101.757812 155.863281 98.230469 162.171875 98.230469 162.171875 C 104.367188 159.554688 110.273438 164.03125 107.625 167.0625 Z M 295.164062 151.878906 C 287.601562 131.089844 263.726562 142.265625 263.726562 142.265625 C 263.875 104.308594 222.9375 91.945312 222.9375 91.945312 L 244.671875 84.785156 C 205.929688 67.777344 179.46875 84.785156 179.46875 84.785156 L 187.703125 74.390625 C 118.449219 98.015625 111.683594 142.265625 111.683594 142.265625 C 111.683594 142.265625 87.804688 131.089844 80.242188 151.878906 C 72.941406 171.957031 88.152344 188.203125 109.402344 186.886719 C 110.15625 186.824219 110.917969 186.757812 111.683594 186.679688 C 111.683594 186.679688 91.558594 223.535156 111.683594 249.050781 L 119.507812 236.761719 C 119.507812 236.761719 118.390625 277.398438 147.457031 290.625 L 147.457031 274.5625 C 147.457031 274.5625 164.226562 300.078125 187.703125 307.636719 C 211.179688 300.078125 227.949219 274.5625 227.949219 274.5625 L 227.949219 290.625 C 257.015625 277.398438 255.898438 236.761719 255.898438 236.761719 L 263.726562 249.050781 C 283.847656 223.535156 263.726562 186.679688 263.726562 186.679688 C 264.492188 186.757812 265.25 186.824219 266.007812 186.886719 C 287.253906 188.203125 302.464844 171.957031 295.164062 151.878906 " fill-opacity="1" fill-rule="nonzero"/></g><path fill="#fef1ea" d="M 175.164062 194.230469 C 178.15625 195.953125 179.835938 198.058594 179.835938 198.058594 C 176.875 196.710938 174.378906 196.378906 172.417969 196.488281 L 172.328125 196.554688 C 171.082031 196.621094 170.035156 196.835938 169.148438 197.152344 C 168.511719 197.386719 168.039062 197.636719 167.742188 197.816406 C 167.617188 197.894531 167.496094 197.976562 167.375 198.058594 C 163.148438 201.058594 165.035156 207.414062 165.035156 207.414062 C 177.324219 192.71875 187.703125 207.414062 187.703125 207.414062 L 187.703125 180.535156 C 187.703125 180.535156 180.941406 189.027344 175.164062 194.230469 " fill-opacity="1" fill-rule="nonzero"/><path fill="#fef1ea" d="M 148.695312 251.628906 C 150.382812 253.433594 152.957031 255.957031 156.292969 258.570312 C 156.292969 258.570312 162.441406 263.535156 169.617188 263.609375 C 175.589844 259.1875 176.160156 252.347656 176.160156 252.347656 C 170.28125 254.550781 164.617188 250.773438 164.617188 250.773438 C 171.351562 250.773438 176.089844 248.28125 178.738281 246.371094 C 180.570312 245.292969 181.195312 244.269531 181.21875 244.226562 C 180.410156 244.09375 179.597656 243.96875 178.785156 243.867188 C 169.246094 242.648438 159.324219 245.199219 148.695312 251.628906 " fill-opacity="1" fill-rule="nonzero"/><path fill="#fef1ea" d="M 177.316406 142.132812 C 171.953125 137.667969 165.21875 134.855469 157.863281 134.460938 C 162.171875 137.519531 164.804688 140.519531 164.804688 140.519531 C 160.511719 138.222656 155.984375 137.1875 151.558594 136.953125 C 144.792969 136.589844 138.160156 139.15625 133.496094 144.070312 L 133.417969 144.152344 C 138.082031 144.921875 142.335938 146.1875 142.335938 146.1875 C 142.273438 146.1875 142.207031 146.183594 142.144531 146.183594 C 134.238281 145.972656 127.21875 151.375 125.472656 159.089844 C 124.261719 164.433594 124.398438 170.203125 126.203125 175.902344 C 128.253906 182.378906 131.449219 188.605469 134.738281 193.976562 C 117.679688 138.21875 177.097656 142.117188 177.316406 142.132812 " fill-opacity="1" fill-rule="nonzero"/><path fill="#fef1ea" d="M 184 237.355469 C 184 237.355469 184.03125 236.988281 183.785156 236.316406 L 184 237.355469 " fill-opacity="1" fill-rule="nonzero"/><path fill="#fef1ea" d="M 158.035156 224 C 158.035156 224 161.882812 220.851562 166.605469 221.796875 C 166.605469 221.796875 162.457031 211.910156 147.367188 211.027344 C 147.367188 211.027344 142.902344 222.714844 147.367188 229.644531 C 147.367188 229.644531 143.308594 226.207031 140.738281 220.148438 C 140.613281 220.378906 140.421875 220.738281 140.191406 221.226562 L 140.167969 221.277344 C 138.492188 224.714844 138.324219 228.722656 139.816406 232.238281 C 140.574219 234.019531 141.617188 235.535156 143.027344 236.574219 L 137.039062 232.898438 C 137.035156 232.972656 137.03125 233.042969 137.027344 233.113281 C 137.027344 233.113281 136.140625 241.496094 140.902344 248.027344 L 140.90625 248.027344 C 154.476562 238.808594 167.238281 235.085938 179.703125 236.679688 C 181.144531 236.863281 182.574219 237.097656 183.996094 237.359375 L 184 237.355469 C 184 237.355469 180.019531 226.519531 158.035156 224 " fill-opacity="1" fill-rule="nonzero"/><path fill="#fef1ea" d="M 92.460938 149.441406 C 88.039062 152.160156 85.855469 157.382812 86.734375 162.496094 C 87.203125 165.238281 88.3125 168.359375 90.738281 170.976562 C 86.847656 165.429688 88.609375 158.808594 88.609375 158.808594 L 90.972656 160.914062 C 91.40625 146.355469 106.035156 150.625 108.429688 151.417969 C 108.609375 151.453125 108.796875 151.492188 108.992188 151.535156 C 108.992188 151.535156 100.507812 144.5 92.460938 149.441406 " fill-opacity="1" fill-rule="nonzero"/><path fill="#a7a5a6" d="M 152.984375 157.433594 C 142.164062 157.429688 129.546875 159.15625 130.222656 167.328125 C 130.222656 167.328125 130.492188 173.90625 133.507812 180.179688 L 152.984375 157.433594 " fill-opacity="1" fill-rule="nonzero"/><path fill="#a7a5a6" d="M 215.6875 157.601562 C 211.25 157.773438 202.238281 158.300781 198.933594 159.878906 C 195.035156 161.351562 193.6875 163.636719 193.339844 165.621094 C 193.339844 165.621094 192.378906 169.9375 195.539062 177.011719 C 195.863281 177.761719 196.214844 178.476562 196.582031 179.152344 L 196.597656 179.1875 C 196.863281 179.667969 197.132812 180.125 197.402344 180.5625 L 215.667969 157.804688 L 215.6875 157.601562 " fill-opacity="1" fill-rule="nonzero"/><path fill="#393536" d="M 252.328125 156.695312 C 251.710938 156.695312 251.210938 156.195312 251.210938 155.578125 C 251.210938 154.960938 251.710938 154.457031 252.328125 154.457031 C 252.949219 154.457031 253.449219 154.960938 253.449219 155.578125 C 253.449219 156.195312 252.949219 156.695312 252.328125 156.695312 Z M 252.328125 160.042969 C 251.710938 160.042969 251.210938 159.542969 251.210938 158.921875 C 251.210938 158.304688 251.710938 157.804688 252.328125 157.804688 C 252.949219 157.804688 253.449219 158.304688 253.449219 158.921875 C 253.449219 159.542969 252.949219 160.042969 252.328125 160.042969 Z M 215.667969 157.804688 L 197.402344 180.5625 C 197.132812 180.125 196.863281 179.667969 196.597656 179.1875 L 196.582031 179.152344 C 196.214844 178.476562 195.863281 177.761719 195.539062 177.011719 C 192.378906 169.9375 193.339844 165.621094 193.339844 165.621094 C 193.6875 163.636719 195.035156 161.351562 198.933594 159.878906 C 202.238281 158.300781 211.25 157.773438 215.6875 157.601562 Z M 133.507812 180.179688 C 130.492188 173.90625 130.222656 167.328125 130.222656 167.328125 C 129.546875 159.15625 142.164062 157.429688 152.984375 157.433594 Z M 123.585938 156.695312 C 122.96875 156.695312 122.46875 156.195312 122.46875 155.578125 C 122.46875 154.960938 122.96875 154.457031 123.585938 154.457031 C 124.203125 154.457031 124.707031 154.960938 124.707031 155.578125 C 124.707031 156.195312 124.203125 156.695312 123.585938 156.695312 Z M 123.585938 160.042969 C 122.96875 160.042969 122.46875 159.542969 122.46875 158.921875 C 122.46875 158.304688 122.96875 157.804688 123.585938 157.804688 C 124.203125 157.804688 124.707031 158.304688 124.707031 158.921875 C 124.707031 159.542969 124.203125 160.042969 123.585938 160.042969 Z M 254.070312 151.628906 C 226.308594 151.359375 208.375 152.9375 197.859375 154.414062 C 194.554688 154.878906 191.222656 155.109375 187.886719 155.109375 C 184.558594 155.109375 181.226562 154.878906 177.917969 154.414062 C 167.402344 152.9375 149.472656 151.359375 121.707031 151.628906 C 121.175781 151.632812 120.742188 152.066406 120.742188 152.597656 L 120.742188 160.714844 C 120.742188 161.082031 120.949219 161.417969 121.277344 161.582031 L 123.855469 162.871094 C 125.429688 163.65625 126.527344 165.152344 126.792969 166.894531 C 127.253906 169.933594 128.234375 175.101562 130.082031 180.277344 C 130.082031 180.277344 130.199219 180.597656 130.449219 181.15625 C 135.769531 193.03125 147.367188 195.554688 159.21875 195.417969 C 173.195312 195.257812 184.027344 182.859375 185.378906 169.421875 C 185.398438 169.191406 185.421875 168.957031 185.441406 168.726562 C 185.539062 167.65625 186.296875 166.71875 187.347656 166.492188 C 187.53125 166.453125 187.710938 166.433594 187.886719 166.433594 C 188.066406 166.433594 188.246094 166.453125 188.433594 166.492188 C 189.484375 166.71875 190.238281 167.65625 190.335938 168.726562 C 190.355469 168.957031 190.378906 169.191406 190.402344 169.421875 C 191.75 182.859375 202.582031 195.257812 216.558594 195.417969 C 228.410156 195.554688 240.007812 193.03125 245.328125 181.15625 C 245.578125 180.597656 245.695312 180.277344 245.695312 180.277344 C 247.542969 175.101562 248.523438 169.933594 248.988281 166.894531 C 249.253906 165.152344 250.347656 163.65625 251.921875 162.871094 L 254.5 161.582031 C 254.828125 161.417969 255.035156 161.082031 255.035156 160.714844 L 255.035156 152.597656 C 255.035156 152.066406 254.605469 151.632812 254.070312 151.628906 " fill-opacity="1" fill-rule="nonzero"/></svg>